# xmcd
#
# Track frame offsets:
#	150
#	14016
#	28050
#	39233
#	53273
#
# Disc length: 921 seconds
#
# Revision: 0
# Processed by: cddbd v1.5.2PL0 Copyright (c) Steve Scherf et al.
# Submitted via: dBpowerAMP V4.0
#
DISCID=31039705
DTITLE=Jana - Winterzeit, Weihnachtszeit
DYEAR=1999
DGENRE=Country
TTITLE0=Winterzeit, Weihnachtszeit
TTITLE1=Winter im Oberland
TTITLE2=Zuckermännel
TTITLE3=Weihnachten ist für alle da
TTITLE4=Ave Maria
EXTD=Dj Roy\n\n
EXTT0=
EXTT1=
EXTT2=
EXTT3=
EXTT4=
PLAYORDER=
